<svg xmlns="http://www.w3.org/2000/svg" xmlns:xlink="http://www.w3.org/1999/xlink" contentStyleType="text/css" data-diagram-type="CLASS" height="1321px" preserveAspectRatio="none" style="width:1380px;height:1321px;background:#FFFFFF;" version="1.1" viewBox="0 0 1380 1321" width="1380px" zoomAndPan="magnify"><defs/><g><!--class users--><g class="entity" data-entity="users" data-source-line="13" data-uid="ent0002" id="entity_users"><rect fill="#F1F1F1" height="238.5781" rx="2.5" ry="2.5" style="stroke:#181818;stroke-width:0.5;" width="283.7754" x="656.52" y="7"/><ellipse cx="769.5884" cy="24" fill="#ADD1B2" rx="12" ry="12" style="stroke:#181818;stroke-width:1;"/><path d="M773.7446,30.5 L765.5727,30.5 L765.5727,17.375 L773.7446,17.375 L773.7446,19.6563 L768.1509,19.6563 L768.1509,22.5 L773.2134,22.5 L773.2134,24.7813 L768.1509,24.7813 L768.1509,28.2188 L773.7446,28.2188 L773.7446,30.5 Z " fill="#000000"/><text fill="#000000" font-family="sans-serif" font-size="18" lengthAdjust="spacing" textLength="48.6387" x="791.5884" y="30.2314">users</text><line style="stroke:#181818;stroke-width:0.5;" x1="657.52" x2="939.2954" y1="41" y2="41"/><ellipse cx="667.52" cy="56.9766" fill="#000000" rx="3" ry="3" style="stroke:#000000;stroke-width:1;"/><text fill="#000000" font-family="sans-serif" font-size="18" lengthAdjust="spacing" textLength="198.5977" x="677.52" y="61.708">id            : bigint &#171;PK&#187;</text><line style="stroke:#181818;stroke-width:1;" x1="657.52" x2="939.2954" y1="69.9531" y2="69.9531"/><text fill="#000000" font-family="sans-serif" font-size="18" lengthAdjust="spacing" textLength="271.7754" x="662.52" y="90.6611">username        : varchar &#171;UQ&#187;</text><text fill="#000000" font-family="sans-serif" font-size="18" lengthAdjust="spacing" textLength="235.7666" x="662.52" y="111.6143">password_hash   : varchar</text><text fill="#000000" font-family="sans-serif" font-size="18" lengthAdjust="spacing" textLength="183.7529" x="662.52" y="132.5674">role            : varchar</text><text fill="#000000" font-family="sans-serif" font-size="18" lengthAdjust="spacing" textLength="210.1553" x="662.52" y="153.5205">first_name      : varchar</text><text fill="#000000" font-family="sans-serif" font-size="18" lengthAdjust="spacing" textLength="213.1699" x="662.52" y="174.4736">last_name       : varchar</text><text fill="#000000" font-family="sans-serif" font-size="18" lengthAdjust="spacing" textLength="220.2627" x="662.52" y="195.4268">student_class   : varchar</text><text fill="#000000" font-family="sans-serif" font-size="18" lengthAdjust="spacing" textLength="248.2734" x="662.52" y="216.3799">email           : varchar &#171;UQ&#187;</text><text fill="#000000" font-family="sans-serif" font-size="18" lengthAdjust="spacing" textLength="255.7617" x="662.52" y="237.333">created_at      : timestamptz</text></g><!--class school_classes--><g class="entity" data-entity="school_classes" data-source-line="26" data-uid="ent0003" id="entity_school_classes"><rect fill="#F1F1F1" height="196.6719" rx="2.5" ry="2.5" style="stroke:#181818;stroke-width:0.5;" width="289.5938" x="335.61" y="316.05"/><ellipse cx="409.9845" cy="333.05" fill="#ADD1B2" rx="12" ry="12" style="stroke:#181818;stroke-width:1;"/><path d="M414.1408,339.55 L405.9689,339.55 L405.9689,326.425 L414.1408,326.425 L414.1408,328.7063 L408.547,328.7063 L408.547,331.55 L413.6095,331.55 L413.6095,333.8313 L408.547,333.8313 L408.547,337.2688 L414.1408,337.2688 L414.1408,339.55 Z " fill="#000000"/><text fill="#000000" font-family="sans-serif" font-size="18" lengthAdjust="spacing" textLength="131.8447" x="431.9845" y="339.2814">school_classes</text><line style="stroke:#181818;stroke-width:0.5;" x1="336.61" x2="624.2038" y1="350.05" y2="350.05"/><ellipse cx="346.61" cy="366.0266" fill="#000000" rx="3" ry="3" style="stroke:#000000;stroke-width:1;"/><text fill="#000000" font-family="sans-serif" font-size="18" lengthAdjust="spacing" textLength="198.5977" x="356.61" y="370.758">id            : bigint &#171;PK&#187;</text><line style="stroke:#181818;stroke-width:1;" x1="336.61" x2="624.2038" y1="379.0031" y2="379.0031"/><text fill="#000000" font-family="sans-serif" font-size="18" lengthAdjust="spacing" textLength="200.3115" x="341.61" y="399.7111">name            : varchar</text><text fill="#000000" font-family="sans-serif" font-size="18" lengthAdjust="spacing" textLength="176.3174" x="341.61" y="420.6643">description     : text</text><text fill="#000000" font-family="sans-serif" font-size="18" lengthAdjust="spacing" textLength="168.0381" x="341.61" y="441.6174">content         : text</text><text fill="#000000" font-family="sans-serif" font-size="18" lengthAdjust="spacing" textLength="230.168" x="341.61" y="462.5705">auto_approve    : boolean</text><text fill="#000000" font-family="sans-serif" font-size="18" lengthAdjust="spacing" textLength="277.5938" x="341.61" y="483.5236">signup_deadline : timestamptz</text><text fill="#000000" font-family="sans-serif" font-size="18" lengthAdjust="spacing" textLength="241.708" x="341.61" y="504.4768">teacher_id      : bigint &#171;FK&#187;</text></g><!--class class_signups--><g class="entity" data-entity="class_signups" data-source-line="37" data-uid="ent0004" id="entity_class_signups"><rect fill="#F1F1F1" height="154.7656" rx="2.5" ry="2.5" style="stroke:#181818;stroke-width:0.5;" width="278.8184" x="7" y="614.63"/><ellipse cx="80.355" cy="631.63" fill="#ADD1B2" rx="12" ry="12" style="stroke:#181818;stroke-width:1;"/><path d="M84.5112,638.13 L76.3394,638.13 L76.3394,625.005 L84.5112,625.005 L84.5112,627.2863 L78.9175,627.2863 L78.9175,630.13 L83.98,630.13 L83.98,632.4113 L78.9175,632.4113 L78.9175,635.8488 L84.5112,635.8488 L84.5112,638.13 Z " fill="#000000"/><text fill="#000000" font-family="sans-serif" font-size="18" lengthAdjust="spacing" textLength="123.1084" x="102.355" y="637.8614">class_signups</text><line style="stroke:#181818;stroke-width:0.5;" x1="8" x2="284.8184" y1="648.63" y2="648.63"/><ellipse cx="18" cy="664.6066" fill="#000000" rx="3" ry="3" style="stroke:#000000;stroke-width:1;"/><text fill="#000000" font-family="sans-serif" font-size="18" lengthAdjust="spacing" textLength="198.5977" x="28" y="669.338">id            : bigint &#171;PK&#187;</text><line style="stroke:#181818;stroke-width:1;" x1="8" x2="284.8184" y1="677.5831" y2="677.5831"/><text fill="#000000" font-family="sans-serif" font-size="18" lengthAdjust="spacing" textLength="193.1309" x="13" y="698.2911">status          : varchar</text><text fill="#000000" font-family="sans-serif" font-size="18" lengthAdjust="spacing" textLength="266.8184" x="13" y="719.2443">created_date    : timestamptz</text><text fill="#000000" font-family="sans-serif" font-size="18" lengthAdjust="spacing" textLength="255.5508" x="13" y="740.1974">school_class_id : bigint &#171;FK&#187;</text><text fill="#000000" font-family="sans-serif" font-size="18" lengthAdjust="spacing" textLength="229.1924" x="13" y="761.1505">user_id         : bigint &#171;FK&#187;</text></g><!--class lessons--><g class="entity" data-entity="lessons" data-source-line="46" data-uid="ent0005" id="entity_lessons"><rect fill="#F1F1F1" height="217.625" rx="2.5" ry="2.5" style="stroke:#181818;stroke-width:0.5;" width="318.3252" x="321.25" y="583.2"/><ellipse cx="442.5977" cy="600.2" fill="#ADD1B2" rx="12" ry="12" style="stroke:#181818;stroke-width:1;"/><path d="M446.7539,606.7 L438.582,606.7 L438.582,593.575 L446.7539,593.575 L446.7539,595.8563 L441.1602,595.8563 L441.1602,598.7 L446.2227,598.7 L446.2227,600.9813 L441.1602,600.9813 L441.1602,604.4188 L446.7539,604.4188 L446.7539,606.7 Z " fill="#000000"/><text fill="#000000" font-family="sans-serif" font-size="18" lengthAdjust="spacing" textLength="66.6299" x="464.5977" y="606.4314">lessons</text><line style="stroke:#181818;stroke-width:0.5;" x1="322.25" x2="638.5752" y1="617.2" y2="617.2"/><ellipse cx="332.25" cy="633.1766" fill="#000000" rx="3" ry="3" style="stroke:#000000;stroke-width:1;"/><text fill="#000000" font-family="sans-serif" font-size="18" lengthAdjust="spacing" textLength="227.2061" x="342.25" y="637.908">id                 : bigint &#171;PK&#187;</text><line style="stroke:#181818;stroke-width:1;" x1="322.25" x2="638.5752" y1="646.1531" y2="646.1531"/><text fill="#000000" font-family="sans-serif" font-size="18" lengthAdjust="spacing" textLength="201.6211" x="327.25" y="666.8611">title               : varchar</text><text fill="#000000" font-family="sans-serif" font-size="18" lengthAdjust="spacing" textLength="199.2041" x="327.25" y="687.8143">description         : text</text><text fill="#000000" font-family="sans-serif" font-size="18" lengthAdjust="spacing" textLength="190.9248" x="327.25" y="708.7674">content             : text</text><text fill="#000000" font-family="sans-serif" font-size="18" lengthAdjust="spacing" textLength="263.6895" x="327.25" y="729.7205">attachment_path     : varchar</text><text fill="#000000" font-family="sans-serif" font-size="18" lengthAdjust="spacing" textLength="257.4053" x="327.25" y="750.6736">solution_required   : boolean</text><text fill="#000000" font-family="sans-serif" font-size="18" lengthAdjust="spacing" textLength="306.3252" x="327.25" y="771.6268">solution_due_date   : timestamptz</text><text fill="#000000" font-family="sans-serif" font-size="18" lengthAdjust="spacing" textLength="278.4375" x="327.25" y="792.5799">school_class_id     : bigint &#171;FK&#187;</text></g><!--class lesson_tasks--><g class="entity" data-entity="lesson_tasks" data-source-line="58" data-uid="ent0006" id="entity_lesson_tasks"><rect fill="#F1F1F1" height="175.7188" rx="2.5" ry="2.5" style="stroke:#181818;stroke-width:0.5;" width="260.9326" x="169.94" y="860.83"/><ellipse cx="239.1465" cy="877.83" fill="#ADD1B2" rx="12" ry="12" style="stroke:#181818;stroke-width:1;"/><path d="M243.3028,884.33 L235.1309,884.33 L235.1309,871.205 L243.3028,871.205 L243.3028,873.4863 L237.709,873.4863 L237.709,876.33 L242.7715,876.33 L242.7715,878.6113 L237.709,878.6113 L237.709,882.0488 L243.3028,882.0488 L243.3028,884.33 Z " fill="#000000"/><text fill="#000000" font-family="sans-serif" font-size="18" lengthAdjust="spacing" textLength="113.5195" x="261.1465" y="884.0614">lesson_tasks</text><line style="stroke:#181818;stroke-width:0.5;" x1="170.94" x2="429.8726" y1="894.83" y2="894.83"/><ellipse cx="180.94" cy="910.8066" fill="#000000" rx="3" ry="3" style="stroke:#000000;stroke-width:1;"/><text fill="#000000" font-family="sans-serif" font-size="18" lengthAdjust="spacing" textLength="198.5977" x="190.94" y="915.538">id            : bigint &#171;PK&#187;</text><line style="stroke:#181818;stroke-width:1;" x1="170.94" x2="429.8726" y1="923.7831" y2="923.7831"/><text fill="#000000" font-family="sans-serif" font-size="18" lengthAdjust="spacing" textLength="173.0127" x="175.94" y="944.4911">title          : varchar</text><text fill="#000000" font-family="sans-serif" font-size="18" lengthAdjust="spacing" textLength="170.5957" x="175.94" y="965.4443">description    : text</text><text fill="#000000" font-family="sans-serif" font-size="18" lengthAdjust="spacing" textLength="248.9326" x="175.94" y="986.3974">due_date       : timestamptz</text><text fill="#000000" font-family="sans-serif" font-size="18" lengthAdjust="spacing" textLength="245.9619" x="175.94" y="1007.3505">solution_required : boolean</text><text fill="#000000" font-family="sans-serif" font-size="18" lengthAdjust="spacing" textLength="230.0186" x="175.94" y="1028.3036">lesson_id      : bigint &#171;FK&#187;</text></g><!--class task_submissions--><g class="entity" data-entity="task_submissions" data-source-line="68" data-uid="ent0007" id="entity_task_submissions"><rect fill="#F1F1F1" height="217.625" rx="2.5" ry="2.5" style="stroke:#181818;stroke-width:0.5;" width="318.3867" x="372.22" y="1096.55"/><ellipse cx="448.3172" cy="1113.55" fill="#ADD1B2" rx="12" ry="12" style="stroke:#181818;stroke-width:1;"/><path d="M452.4734,1120.05 L444.3015,1120.05 L444.3015,1106.925 L452.4734,1106.925 L452.4734,1109.2063 L446.8797,1109.2063 L446.8797,1112.05 L451.9422,1112.05 L451.9422,1114.3313 L446.8797,1114.3313 L446.8797,1117.7688 L452.4734,1117.7688 L452.4734,1120.05 Z " fill="#000000"/><text fill="#000000" font-family="sans-serif" font-size="18" lengthAdjust="spacing" textLength="157.1924" x="470.3172" y="1119.7814">task_submissions</text><line style="stroke:#181818;stroke-width:0.5;" x1="373.22" x2="689.6067" y1="1130.55" y2="1130.55"/><ellipse cx="383.22" cy="1146.5266" fill="#000000" rx="3" ry="3" style="stroke:#000000;stroke-width:1;"/><text fill="#000000" font-family="sans-serif" font-size="18" lengthAdjust="spacing" textLength="227.2061" x="393.22" y="1151.258">id                 : bigint &#171;PK&#187;</text><line style="stroke:#181818;stroke-width:1;" x1="373.22" x2="689.6067" y1="1159.5031" y2="1159.5031"/><text fill="#000000" font-family="sans-serif" font-size="18" lengthAdjust="spacing" textLength="209.5225" x="378.22" y="1180.2111">solution_text        : text</text><text fill="#000000" font-family="sans-serif" font-size="18" lengthAdjust="spacing" textLength="269.4111" x="378.22" y="1201.1643">attachment_path      : varchar</text><text fill="#000000" font-family="sans-serif" font-size="18" lengthAdjust="spacing" textLength="306.3867" x="378.22" y="1222.1174">submitted_date       : timestamptz</text><text fill="#000000" font-family="sans-serif" font-size="18" lengthAdjust="spacing" textLength="272.083" x="378.22" y="1243.0705">grade                : numeric(4,1)</text><text fill="#000000" font-family="sans-serif" font-size="18" lengthAdjust="spacing" textLength="249.0732" x="378.22" y="1264.0236">teacher_comments     : text</text><text fill="#000000" font-family="sans-serif" font-size="18" lengthAdjust="spacing" textLength="282.6299" x="378.22" y="1284.9768">lesson_task_id       : bigint &#171;FK&#187;</text><text fill="#000000" font-family="sans-serif" font-size="18" lengthAdjust="spacing" textLength="257.8008" x="378.22" y="1305.9299">user_id              : bigint &#171;FK&#187;</text></g><!--class lesson_ratings--><g class="entity" data-entity="lesson_ratings" data-source-line="80" data-uid="ent0008" id="entity_lesson_ratings"><rect fill="#F1F1F1" height="154.7656" rx="2.5" ry="2.5" style="stroke:#181818;stroke-width:0.5;" width="244.875" x="465.97" y="871.3"/><ellipse cx="519.4309" cy="888.3" fill="#ADD1B2" rx="12" ry="12" style="stroke:#181818;stroke-width:1;"/><path d="M523.5872,894.8 L515.4153,894.8 L515.4153,881.675 L523.5872,881.675 L523.5872,883.9563 L517.9934,883.9563 L517.9934,886.8 L523.0559,886.8 L523.0559,889.0813 L517.9934,889.0813 L517.9934,892.5188 L523.5872,892.5188 L523.5872,894.8 Z " fill="#000000"/><text fill="#000000" font-family="sans-serif" font-size="18" lengthAdjust="spacing" textLength="128.9531" x="541.4309" y="894.5314">lesson_ratings</text><line style="stroke:#181818;stroke-width:0.5;" x1="466.97" x2="709.845" y1="905.3" y2="905.3"/><ellipse cx="476.97" cy="921.2766" fill="#000000" rx="3" ry="3" style="stroke:#000000;stroke-width:1;"/><text fill="#000000" font-family="sans-serif" font-size="18" lengthAdjust="spacing" textLength="181.4326" x="486.97" y="926.008">id         : bigint &#171;PK&#187;</text><line style="stroke:#181818;stroke-width:1;" x1="466.97" x2="709.845" y1="934.2531" y2="934.2531"/><text fill="#000000" font-family="sans-serif" font-size="18" lengthAdjust="spacing" textLength="122.9063" x="471.97" y="954.9611">rating      : int</text><text fill="#000000" font-family="sans-serif" font-size="18" lengthAdjust="spacing" textLength="232.875" x="471.97" y="975.9143">created_at  : timestamptz</text><text fill="#000000" font-family="sans-serif" font-size="18" lengthAdjust="spacing" textLength="212.8535" x="471.97" y="996.8674">lesson_id   : bigint &#171;FK&#187;</text><text fill="#000000" font-family="sans-serif" font-size="18" lengthAdjust="spacing" textLength="206.3057" x="471.97" y="1017.8205">user_id     : bigint &#171;FK&#187;</text></g><!--class posts--><g class="entity" data-entity="posts" data-source-line="89" data-uid="ent0009" id="entity_posts"><rect fill="#F1F1F1" height="217.625" rx="2.5" ry="2.5" style="stroke:#181818;stroke-width:0.5;" width="258.498" x="958.16" y="305.58"/><ellipse cx="1058.783" cy="322.58" fill="#ADD1B2" rx="12" ry="12" style="stroke:#181818;stroke-width:1;"/><path d="M1062.9393,329.08 L1054.7674,329.08 L1054.7674,315.955 L1062.9393,315.955 L1062.9393,318.2363 L1057.3455,318.2363 L1057.3455,321.08 L1062.408,321.08 L1062.408,323.3613 L1057.3455,323.3613 L1057.3455,326.7988 L1062.9393,326.7988 L1062.9393,329.08 Z " fill="#000000"/><text fill="#000000" font-family="sans-serif" font-size="18" lengthAdjust="spacing" textLength="48.252" x="1080.783" y="328.8114">posts</text><line style="stroke:#181818;stroke-width:0.5;" x1="959.16" x2="1215.658" y1="339.58" y2="339.58"/><ellipse cx="969.16" cy="355.5566" fill="#000000" rx="3" ry="3" style="stroke:#000000;stroke-width:1;"/><text fill="#000000" font-family="sans-serif" font-size="18" lengthAdjust="spacing" textLength="187.1543" x="979.16" y="360.288">id          : bigint &#171;PK&#187;</text><line style="stroke:#181818;stroke-width:1;" x1="959.16" x2="1215.658" y1="368.5331" y2="368.5331"/><text fill="#000000" font-family="sans-serif" font-size="18" lengthAdjust="spacing" textLength="167.291" x="964.16" y="389.2411">title         : varchar</text><text fill="#000000" font-family="sans-serif" font-size="18" lengthAdjust="spacing" textLength="156.5947" x="964.16" y="410.1943">content       : text</text><text fill="#000000" font-family="sans-serif" font-size="18" lengthAdjust="spacing" textLength="240.8027" x="964.16" y="431.1474">attachment_path : varchar</text><text fill="#000000" font-family="sans-serif" font-size="18" lengthAdjust="spacing" textLength="159.3721" x="964.16" y="452.1005">view_count    : int</text><text fill="#000000" font-family="sans-serif" font-size="18" lengthAdjust="spacing" textLength="246.498" x="964.16" y="473.0536">avg_rating    : numeric(4,2)</text><text fill="#000000" font-family="sans-serif" font-size="18" lengthAdjust="spacing" textLength="244.3184" x="964.16" y="494.0068">created_at    : timestamptz</text><text fill="#000000" font-family="sans-serif" font-size="18" lengthAdjust="spacing" textLength="226.3623" x="964.16" y="514.9599">author_id     : bigint &#171;FK&#187;</text></g><!--class comments--><g class="entity" data-entity="comments" data-source-line="101" data-uid="ent0010" id="entity_comments"><rect fill="#F1F1F1" height="175.7188" rx="2.5" ry="2.5" style="stroke:#181818;stroke-width:0.5;" width="244.875" x="1128.97" y="604.15"/><ellipse cx="1199.4597" cy="621.15" fill="#ADD1B2" rx="12" ry="12" style="stroke:#181818;stroke-width:1;"/><path d="M1203.616,627.65 L1195.4441,627.65 L1195.4441,614.525 L1203.616,614.525 L1203.616,616.8063 L1198.0222,616.8063 L1198.0222,619.65 L1203.0847,619.65 L1203.0847,621.9313 L1198.0222,621.9313 L1198.0222,625.3688 L1203.616,625.3688 L1203.616,627.65 Z " fill="#000000"/><text fill="#000000" font-family="sans-serif" font-size="18" lengthAdjust="spacing" textLength="94.8955" x="1221.4597" y="627.3814">comments</text><line style="stroke:#181818;stroke-width:0.5;" x1="1129.97" x2="1372.845" y1="638.15" y2="638.15"/><ellipse cx="1139.97" cy="654.1266" fill="#000000" rx="3" ry="3" style="stroke:#000000;stroke-width:1;"/><text fill="#000000" font-family="sans-serif" font-size="18" lengthAdjust="spacing" textLength="181.4326" x="1149.97" y="658.858">id         : bigint &#171;PK&#187;</text><line style="stroke:#181818;stroke-width:1;" x1="1129.97" x2="1372.845" y1="667.1031" y2="667.1031"/><text fill="#000000" font-family="sans-serif" font-size="18" lengthAdjust="spacing" textLength="129.2432" x="1134.97" y="687.8111">text        : text</text><text fill="#000000" font-family="sans-serif" font-size="18" lengthAdjust="spacing" textLength="116.1826" x="1134.97" y="708.7643">likes       : int</text><text fill="#000000" font-family="sans-serif" font-size="18" lengthAdjust="spacing" textLength="232.875" x="1134.97" y="729.7174">created_at  : timestamptz</text><text fill="#000000" font-family="sans-serif" font-size="18" lengthAdjust="spacing" textLength="205.9189" x="1134.97" y="750.6705">post_id     : bigint &#171;FK&#187;</text><text fill="#000000" font-family="sans-serif" font-size="18" lengthAdjust="spacing" textLength="206.3057" x="1134.97" y="771.6236">user_id     : bigint &#171;FK&#187;</text></g><!--class comment_likes--><g class="entity" data-entity="comment_likes" data-source-line="111" data-uid="ent0011" id="entity_comment_likes"><rect fill="#F1F1F1" height="112.8594" rx="2.5" ry="2.5" style="stroke:#181818;stroke-width:0.5;" width="241.6758" x="973.57" y="892.26"/><ellipse cx="1022.2101" cy="909.26" fill="#ADD1B2" rx="12" ry="12" style="stroke:#181818;stroke-width:1;"/><path d="M1026.3664,915.76 L1018.1945,915.76 L1018.1945,902.635 L1026.3664,902.635 L1026.3664,904.9163 L1020.7726,904.9163 L1020.7726,907.76 L1025.8351,907.76 L1025.8351,910.0413 L1020.7726,910.0413 L1020.7726,913.4788 L1026.3664,913.4788 L1026.3664,915.76 Z " fill="#000000"/><text fill="#000000" font-family="sans-serif" font-size="18" lengthAdjust="spacing" textLength="135.3955" x="1044.2101" y="915.4914">comment_likes</text><line style="stroke:#181818;stroke-width:0.5;" x1="974.57" x2="1214.2458" y1="926.26" y2="926.26"/><ellipse cx="984.57" cy="942.2366" fill="#000000" rx="3" ry="3" style="stroke:#000000;stroke-width:1;"/><text fill="#000000" font-family="sans-serif" font-size="18" lengthAdjust="spacing" textLength="175.7109" x="994.57" y="946.968">id        : bigint &#171;PK&#187;</text><line style="stroke:#181818;stroke-width:1;" x1="974.57" x2="1214.2458" y1="955.2131" y2="955.2131"/><text fill="#000000" font-family="sans-serif" font-size="18" lengthAdjust="spacing" textLength="229.6758" x="979.57" y="975.9211">comment_id : bigint &#171;FK&#187;</text><text fill="#000000" font-family="sans-serif" font-size="18" lengthAdjust="spacing" textLength="200.584" x="979.57" y="996.8743">user_id    : bigint &#171;FK&#187;</text></g><!--class post_ratings--><g class="entity" data-entity="post_ratings" data-source-line="118" data-uid="ent0012" id="entity_post_ratings"><rect fill="#F1F1F1" height="133.8125" rx="2.5" ry="2.5" style="stroke:#181818;stroke-width:0.5;" width="206.8623" x="886.98" y="625.11"/><ellipse cx="931.0092" cy="642.11" fill="#ADD1B2" rx="12" ry="12" style="stroke:#181818;stroke-width:1;"/><path d="M935.1654,648.61 L926.9936,648.61 L926.9936,635.485 L935.1654,635.485 L935.1654,637.7663 L929.5717,637.7663 L929.5717,640.61 L934.6342,640.61 L934.6342,642.8913 L929.5717,642.8913 L929.5717,646.3288 L935.1654,646.3288 L935.1654,648.61 Z " fill="#000000"/><text fill="#000000" font-family="sans-serif" font-size="18" lengthAdjust="spacing" textLength="110.5752" x="952.2379" y="648.3414">post_ratings</text><line style="stroke:#181818;stroke-width:0.5;" x1="887.98" x2="1092.8423" y1="659.11" y2="659.11"/><ellipse cx="897.98" cy="675.0866" fill="#000000" rx="3" ry="3" style="stroke:#000000;stroke-width:1;"/><text fill="#000000" font-family="sans-serif" font-size="18" lengthAdjust="spacing" textLength="169.9893" x="907.98" y="679.818">id       : bigint &#171;PK&#187;</text><line style="stroke:#181818;stroke-width:1;" x1="887.98" x2="1092.8423" y1="688.0631" y2="688.0631"/><text fill="#000000" font-family="sans-serif" font-size="18" lengthAdjust="spacing" textLength="159.4072" x="892.98" y="708.7711">rating    : smallint</text><text fill="#000000" font-family="sans-serif" font-size="18" lengthAdjust="spacing" textLength="194.4756" x="892.98" y="729.7243">post_id   : bigint &#171;FK&#187;</text><text fill="#000000" font-family="sans-serif" font-size="18" lengthAdjust="spacing" textLength="194.8623" x="892.98" y="750.6774">user_id   : bigint &#171;FK&#187;</text></g><!--link users to school_classes--><g class="link" data-entity-1="users" data-entity-2="school_classes" data-source-line="129" data-uid="lnk13" id="link_users_school_classes"><path codeLine="129" d="M674.63,253.87 C674.63,333.35 674.63,415.17 674.63,415.17 C674.63,415.17 671.72,415.17 643.62,415.17" fill="none" id="users-school_classes" style="stroke:#181818;stroke-width:1;"/><line style="stroke:#181818;stroke-width:1;" x1="670.63" x2="678.63" y1="249.87" y2="249.87"/><line style="stroke:#181818;stroke-width:1;" x1="670.63" x2="678.63" y1="252.87" y2="252.87"/><line style="stroke:#181818;stroke-width:1;" x1="674.63" x2="674.63" y1="253.87" y2="245.87"/><line style="stroke:#181818;stroke-width:1;" x1="633.62" x2="625.62" y1="415.17" y2="421.17"/><line style="stroke:#181818;stroke-width:1;" x1="633.62" x2="625.62" y1="415.17" y2="409.17"/><line style="stroke:#181818;stroke-width:1;" x1="633.62" x2="625.62" y1="415.17" y2="415.17"/><ellipse cx="639.62" cy="415.17" fill="none" rx="4" ry="4" style="stroke:#181818;stroke-width:1;"/><text fill="#000000" font-family="sans-serif" font-size="18" lengthAdjust="spacing" textLength="70.9189" x="675.63" y="350.738">teaches</text></g><!--link school_classes to class_signups--><g class="link" data-entity-1="school_classes" data-entity-2="class_signups" data-source-line="130" data-uid="lnk14" id="link_school_classes_class_signups"><path codeLine="130" d="M327.38,415.17 C255.92,415.17 192.88,415.17 192.88,415.17 C192.88,415.17 192.88,514.28 192.88,596.16" fill="none" id="school_classes-class_signups" style="stroke:#181818;stroke-width:1;"/><line style="stroke:#181818;stroke-width:1;" x1="331.38" x2="331.38" y1="411.17" y2="419.17"/><line style="stroke:#181818;stroke-width:1;" x1="328.38" x2="328.38" y1="411.17" y2="419.17"/><line style="stroke:#181818;stroke-width:1;" x1="327.38" x2="335.38" y1="415.17" y2="415.17"/><line style="stroke:#181818;stroke-width:1;" x1="192.88" x2="198.88" y1="606.16" y2="614.16"/><line style="stroke:#181818;stroke-width:1;" x1="192.88" x2="186.88" y1="606.16" y2="614.16"/><line style="stroke:#181818;stroke-width:1;" x1="192.88" x2="192.88" y1="606.16" y2="614.16"/><ellipse cx="192.88" cy="600.16" fill="none" rx="4" ry="4" style="stroke:#181818;stroke-width:1;"/><text fill="#000000" font-family="sans-serif" font-size="18" lengthAdjust="spacing" textLength="107.3496" x="84.88" y="439.118">enrollments</text></g><!--link users to class_signups--><g class="link" data-entity-1="users" data-entity-2="class_signups" data-source-line="131" data-uid="lnk15" id="link_users_class_signups"><path codeLine="131" d="M648.22,127.17 C444,127.17 99.94,127.17 99.94,127.17 C99.94,127.17 99.94,441.54 99.94,596.36" fill="none" id="users-class_signups" style="stroke:#181818;stroke-width:1;"/><line style="stroke:#181818;stroke-width:1;" x1="652.22" x2="652.22" y1="123.17" y2="131.17"/><line style="stroke:#181818;stroke-width:1;" x1="649.22" x2="649.22" y1="123.17" y2="131.17"/><line style="stroke:#181818;stroke-width:1;" x1="648.22" x2="656.22" y1="127.17" y2="127.17"/><line style="stroke:#181818;stroke-width:1;" x1="99.94" x2="105.94" y1="606.36" y2="614.36"/><line style="stroke:#181818;stroke-width:1;" x1="99.94" x2="93.94" y1="606.36" y2="614.36"/><line style="stroke:#181818;stroke-width:1;" x1="99.94" x2="99.94" y1="606.36" y2="614.36"/><ellipse cx="99.94" cy="600.36" fill="none" rx="4" ry="4" style="stroke:#181818;stroke-width:1;"/><text fill="#000000" font-family="sans-serif" font-size="18" lengthAdjust="spacing" textLength="68.8096" x="65.48" y="122.878">student</text></g><!--link school_classes to lessons--><g class="link" data-entity-1="school_classes" data-entity-2="lessons" data-source-line="133" data-uid="lnk16" id="link_school_classes_lessons"><path codeLine="133" d="M480.41,521.05 C480.41,543.65 480.41,541.8 480.41,564.82" fill="none" id="school_classes-lessons" style="stroke:#181818;stroke-width:1;"/><line style="stroke:#181818;stroke-width:1;" x1="476.41" x2="484.41" y1="517.05" y2="517.05"/><line style="stroke:#181818;stroke-width:1;" x1="476.41" x2="484.41" y1="520.05" y2="520.05"/><line style="stroke:#181818;stroke-width:1;" x1="480.41" x2="480.41" y1="521.05" y2="513.05"/><line style="stroke:#181818;stroke-width:1;" x1="480.41" x2="486.41" y1="574.82" y2="582.82"/><line style="stroke:#181818;stroke-width:1;" x1="480.41" x2="474.41" y1="574.82" y2="582.82"/><line style="stroke:#181818;stroke-width:1;" x1="480.41" x2="480.41" y1="574.82" y2="582.82"/><ellipse cx="480.41" cy="568.82" fill="none" rx="4" ry="4" style="stroke:#181818;stroke-width:1;"/><text fill="#000000" font-family="sans-serif" font-size="18" lengthAdjust="spacing" textLength="66.6299" x="413.41" y="543.638">lessons</text></g><!--link lessons to lesson_tasks--><g class="link" data-entity-1="lessons" data-entity-2="lesson_tasks" data-source-line="134" data-uid="lnk17" id="link_lessons_lesson_tasks"><path codeLine="134" d="M376.06,809.24 C376.06,829.02 376.06,823.43 376.06,842.51" fill="none" id="lessons-lesson_tasks" style="stroke:#181818;stroke-width:1;"/><line style="stroke:#181818;stroke-width:1;" x1="372.06" x2="380.06" y1="805.24" y2="805.24"/><line style="stroke:#181818;stroke-width:1;" x1="372.06" x2="380.06" y1="808.24" y2="808.24"/><line style="stroke:#181818;stroke-width:1;" x1="376.06" x2="376.06" y1="809.24" y2="801.24"/><line style="stroke:#181818;stroke-width:1;" x1="376.06" x2="382.06" y1="852.51" y2="860.51"/><line style="stroke:#181818;stroke-width:1;" x1="376.06" x2="370.06" y1="852.51" y2="860.51"/><line style="stroke:#181818;stroke-width:1;" x1="376.06" x2="376.06" y1="852.51" y2="860.51"/><ellipse cx="376.06" cy="846.51" fill="none" rx="4" ry="4" style="stroke:#181818;stroke-width:1;"/><text fill="#000000" font-family="sans-serif" font-size="18" lengthAdjust="spacing" textLength="47.2676" x="328.06" y="826.588">tasks</text></g><!--link lesson_tasks to task_submissions--><g class="link" data-entity-1="lesson_tasks" data-entity-2="task_submissions" data-source-line="135" data-uid="lnk18" id="link_lesson_tasks_task_submissions"><path codeLine="135" d="M401.55,1045.02 C401.55,1064.16 401.55,1058.62 401.55,1078.45" fill="none" id="lesson_tasks-task_submissions" style="stroke:#181818;stroke-width:1;"/><line style="stroke:#181818;stroke-width:1;" x1="397.55" x2="405.55" y1="1041.02" y2="1041.02"/><line style="stroke:#181818;stroke-width:1;" x1="397.55" x2="405.55" y1="1044.02" y2="1044.02"/><line style="stroke:#181818;stroke-width:1;" x1="401.55" x2="401.55" y1="1045.02" y2="1037.02"/><line style="stroke:#181818;stroke-width:1;" x1="401.55" x2="407.55" y1="1088.45" y2="1096.45"/><line style="stroke:#181818;stroke-width:1;" x1="401.55" x2="395.55" y1="1088.45" y2="1096.45"/><line style="stroke:#181818;stroke-width:1;" x1="401.55" x2="401.55" y1="1088.45" y2="1096.45"/><ellipse cx="401.55" cy="1082.45" fill="none" rx="4" ry="4" style="stroke:#181818;stroke-width:1;"/><text fill="#000000" font-family="sans-serif" font-size="18" lengthAdjust="spacing" textLength="110.3027" x="290.55" y="1062.438">submissions</text></g><!--link users to task_submissions--><g class="link" data-entity-1="users" data-entity-2="task_submissions" data-source-line="136" data-uid="lnk19" id="link_users_task_submissions"><path codeLine="136" d="M769.56,253.98 C769.56,535.14 769.56,1206.17 769.56,1206.17 C769.56,1206.17 752.3,1206.17 708.92,1206.17" fill="none" id="users-task_submissions" style="stroke:#181818;stroke-width:1;"/><line style="stroke:#181818;stroke-width:1;" x1="765.56" x2="773.56" y1="249.98" y2="249.98"/><line style="stroke:#181818;stroke-width:1;" x1="765.56" x2="773.56" y1="252.98" y2="252.98"/><line style="stroke:#181818;stroke-width:1;" x1="769.56" x2="769.56" y1="253.98" y2="245.98"/><line style="stroke:#181818;stroke-width:1;" x1="698.92" x2="690.92" y1="1206.17" y2="1212.17"/><line style="stroke:#181818;stroke-width:1;" x1="698.92" x2="690.92" y1="1206.17" y2="1200.17"/><line style="stroke:#181818;stroke-width:1;" x1="698.92" x2="690.92" y1="1206.17" y2="1206.17"/><ellipse cx="704.92" cy="1206.17" fill="none" rx="4" ry="4" style="stroke:#181818;stroke-width:1;"/><text fill="#000000" font-family="sans-serif" font-size="18" lengthAdjust="spacing" textLength="59.3174" x="709.56" y="761.098">author</text></g><!--link lessons to lesson_ratings--><g class="link" data-entity-1="lessons" data-entity-2="lesson_ratings" data-source-line="137" data-uid="lnk20" id="link_lessons_lesson_ratings"><path codeLine="137" d="M552.77,809.24 C552.77,832.71 552.77,831.05 552.77,853.03" fill="none" id="lessons-lesson_ratings" style="stroke:#181818;stroke-width:1;"/><line style="stroke:#181818;stroke-width:1;" x1="548.77" x2="556.77" y1="805.24" y2="805.24"/><line style="stroke:#181818;stroke-width:1;" x1="548.77" x2="556.77" y1="808.24" y2="808.24"/><line style="stroke:#181818;stroke-width:1;" x1="552.77" x2="552.77" y1="809.24" y2="801.24"/><line style="stroke:#181818;stroke-width:1;" x1="552.77" x2="558.77" y1="863.03" y2="871.03"/><line style="stroke:#181818;stroke-width:1;" x1="552.77" x2="546.77" y1="863.03" y2="871.03"/><line style="stroke:#181818;stroke-width:1;" x1="552.77" x2="552.77" y1="863.03" y2="871.03"/><ellipse cx="552.77" cy="857.03" fill="none" rx="4" ry="4" style="stroke:#181818;stroke-width:1;"/><text fill="#000000" font-family="sans-serif" font-size="18" lengthAdjust="spacing" textLength="62.7012" x="489.77" y="831.838">ratings</text></g><!--link users to lesson_ratings--><g class="link" data-entity-1="users" data-entity-2="lesson_ratings" data-source-line="138" data-uid="lnk21" id="link_users_lesson_ratings"><path codeLine="138" d="M692.74,253.87 C692.74,424.94 692.74,708.74 692.74,852.95" fill="none" id="users-lesson_ratings" style="stroke:#181818;stroke-width:1;"/><line style="stroke:#181818;stroke-width:1;" x1="688.74" x2="696.74" y1="249.87" y2="249.87"/><line style="stroke:#181818;stroke-width:1;" x1="688.74" x2="696.74" y1="252.87" y2="252.87"/><line style="stroke:#181818;stroke-width:1;" x1="692.74" x2="692.74" y1="253.87" y2="245.87"/><line style="stroke:#181818;stroke-width:1;" x1="692.74" x2="698.74" y1="862.95" y2="870.95"/><line style="stroke:#181818;stroke-width:1;" x1="692.74" x2="686.74" y1="862.95" y2="870.95"/><line style="stroke:#181818;stroke-width:1;" x1="692.74" x2="692.74" y1="862.95" y2="870.95"/><ellipse cx="692.74" cy="856.95" fill="none" rx="4" ry="4" style="stroke:#181818;stroke-width:1;"/><text fill="#000000" font-family="sans-serif" font-size="18" lengthAdjust="spacing" textLength="43.9629" x="648.74" y="554.118">rater</text></g><!--link users to posts--><g class="link" data-entity-1="users" data-entity-2="posts" data-source-line="140" data-uid="lnk22" id="link_users_posts"><path codeLine="140" d="M926.97,253.99 C926.97,289.53 926.97,311.17 926.97,311.17 C926.97,311.17 921.66,311.17 939.9,311.17" fill="none" id="users-posts" style="stroke:#181818;stroke-width:1;"/><line style="stroke:#181818;stroke-width:1;" x1="922.97" x2="930.97" y1="249.99" y2="249.99"/><line style="stroke:#181818;stroke-width:1;" x1="922.97" x2="930.97" y1="252.99" y2="252.99"/><line style="stroke:#181818;stroke-width:1;" x1="926.97" x2="926.97" y1="253.99" y2="245.99"/><line style="stroke:#181818;stroke-width:1;" x1="949.9" x2="957.9" y1="311.17" y2="305.17"/><line style="stroke:#181818;stroke-width:1;" x1="949.9" x2="957.9" y1="311.17" y2="317.17"/><line style="stroke:#181818;stroke-width:1;" x1="949.9" x2="957.9" y1="311.17" y2="311.17"/><ellipse cx="943.9" cy="311.17" fill="none" rx="4" ry="4" style="stroke:#181818;stroke-width:1;"/><text fill="#000000" font-family="sans-serif" font-size="18" lengthAdjust="spacing" textLength="59.3174" x="866.97" y="289.758">author</text></g><!--link posts to comments--><g class="link" data-entity-1="posts" data-entity-2="comments" data-source-line="141" data-uid="lnk23" id="link_posts_comments"><path codeLine="141" d="M1172.81,531.32 C1172.81,558.05 1172.81,560.34 1172.81,585.96" fill="none" id="posts-comments" style="stroke:#181818;stroke-width:1;"/><line style="stroke:#181818;stroke-width:1;" x1="1168.81" x2="1176.81" y1="527.32" y2="527.32"/><line style="stroke:#181818;stroke-width:1;" x1="1168.81" x2="1176.81" y1="530.32" y2="530.32"/><line style="stroke:#181818;stroke-width:1;" x1="1172.81" x2="1172.81" y1="531.32" y2="523.32"/><line style="stroke:#181818;stroke-width:1;" x1="1172.81" x2="1178.81" y1="595.96" y2="603.96"/><line style="stroke:#181818;stroke-width:1;" x1="1172.81" x2="1166.81" y1="595.96" y2="603.96"/><line style="stroke:#181818;stroke-width:1;" x1="1172.81" x2="1172.81" y1="595.96" y2="603.96"/><ellipse cx="1172.81" cy="589.96" fill="none" rx="4" ry="4" style="stroke:#181818;stroke-width:1;"/><text fill="#000000" font-family="sans-serif" font-size="18" lengthAdjust="spacing" textLength="94.8955" x="1077.81" y="559.348">comments</text></g><!--link users to comments--><g class="link" data-entity-1="users" data-entity-2="comments" data-source-line="142" data-uid="lnk24" id="link_users_comments"><path codeLine="142" d="M913.64,253.88 C913.64,398.61 913.64,615.17 913.64,615.17 C913.64,615.17 1013.93,615.17 1110.51,615.17" fill="none" id="users-comments" style="stroke:#181818;stroke-width:1;"/><line style="stroke:#181818;stroke-width:1;" x1="909.64" x2="917.64" y1="249.88" y2="249.88"/><line style="stroke:#181818;stroke-width:1;" x1="909.64" x2="917.64" y1="252.88" y2="252.88"/><line style="stroke:#181818;stroke-width:1;" x1="913.64" x2="913.64" y1="253.88" y2="245.88"/><line style="stroke:#181818;stroke-width:1;" x1="1120.51" x2="1128.51" y1="615.17" y2="609.17"/><line style="stroke:#181818;stroke-width:1;" x1="1120.51" x2="1128.51" y1="615.17" y2="621.17"/><line style="stroke:#181818;stroke-width:1;" x1="1120.51" x2="1128.51" y1="615.17" y2="615.17"/><ellipse cx="1114.51" cy="615.17" fill="none" rx="4" ry="4" style="stroke:#181818;stroke-width:1;"/><text fill="#000000" font-family="sans-serif" font-size="18" lengthAdjust="spacing" textLength="103.9922" x="809.64" y="533.668">commenter</text></g><!--link comments to comment_likes--><g class="link" data-entity-1="comments" data-entity-2="comment_likes" data-source-line="143" data-uid="lnk25" id="link_comments_comment_likes"><path codeLine="143" d="M1172.11,788.35 C1172.11,825.32 1172.11,841.22 1172.11,873.97" fill="none" id="comments-comment_likes" style="stroke:#181818;stroke-width:1;"/><line style="stroke:#181818;stroke-width:1;" x1="1168.11" x2="1176.11" y1="784.35" y2="784.35"/><line style="stroke:#181818;stroke-width:1;" x1="1168.11" x2="1176.11" y1="787.35" y2="787.35"/><line style="stroke:#181818;stroke-width:1;" x1="1172.11" x2="1172.11" y1="788.35" y2="780.35"/><line style="stroke:#181818;stroke-width:1;" x1="1172.11" x2="1178.11" y1="883.97" y2="891.97"/><line style="stroke:#181818;stroke-width:1;" x1="1172.11" x2="1166.11" y1="883.97" y2="891.97"/><line style="stroke:#181818;stroke-width:1;" x1="1172.11" x2="1172.11" y1="883.97" y2="891.97"/><ellipse cx="1172.11" cy="877.97" fill="none" rx="4" ry="4" style="stroke:#181818;stroke-width:1;"/><text fill="#000000" font-family="sans-serif" font-size="18" lengthAdjust="spacing" textLength="40.8779" x="1131.11" y="831.868">likes</text></g><!--link users to comment_likes--><g class="link" data-entity-1="users" data-entity-2="comment_likes" data-source-line="144" data-uid="lnk26" id="link_users_comment_likes"><path codeLine="144" d="M828.27,253.94 C828.27,482.17 828.27,949.17 828.27,949.17 C828.27,949.17 885.1,949.17 955.41,949.17" fill="none" id="users-comment_likes" style="stroke:#181818;stroke-width:1;"/><line style="stroke:#181818;stroke-width:1;" x1="824.27" x2="832.27" y1="249.94" y2="249.94"/><line style="stroke:#181818;stroke-width:1;" x1="824.27" x2="832.27" y1="252.94" y2="252.94"/><line style="stroke:#181818;stroke-width:1;" x1="828.27" x2="828.27" y1="253.94" y2="245.94"/><line style="stroke:#181818;stroke-width:1;" x1="965.41" x2="973.41" y1="949.17" y2="943.17"/><line style="stroke:#181818;stroke-width:1;" x1="965.41" x2="973.41" y1="949.17" y2="955.17"/><line style="stroke:#181818;stroke-width:1;" x1="965.41" x2="973.41" y1="949.17" y2="949.17"/><ellipse cx="959.41" cy="949.17" fill="none" rx="4" ry="4" style="stroke:#181818;stroke-width:1;"/><text fill="#000000" font-family="sans-serif" font-size="18" lengthAdjust="spacing" textLength="38.9004" x="789.27" y="665.838">liker</text></g><!--link posts to post_ratings--><g class="link" data-entity-1="posts" data-entity-2="post_ratings" data-source-line="145" data-uid="lnk27" id="link_posts_post_ratings"><path codeLine="145" d="M1026,531.32 C1026,565.5 1026,576.21 1026,606.64" fill="none" id="posts-post_ratings" style="stroke:#181818;stroke-width:1;"/><line style="stroke:#181818;stroke-width:1;" x1="1022" x2="1030" y1="527.32" y2="527.32"/><line style="stroke:#181818;stroke-width:1;" x1="1022" x2="1030" y1="530.32" y2="530.32"/><line style="stroke:#181818;stroke-width:1;" x1="1026" x2="1026" y1="531.32" y2="523.32"/><line style="stroke:#181818;stroke-width:1;" x1="1026" x2="1032" y1="616.64" y2="624.64"/><line style="stroke:#181818;stroke-width:1;" x1="1026" x2="1020" y1="616.64" y2="624.64"/><line style="stroke:#181818;stroke-width:1;" x1="1026" x2="1026" y1="616.64" y2="624.64"/><ellipse cx="1026" cy="610.64" fill="none" rx="4" ry="4" style="stroke:#181818;stroke-width:1;"/><text fill="#000000" font-family="sans-serif" font-size="18" lengthAdjust="spacing" textLength="62.7012" x="963" y="569.688">ratings</text></g><!--link users to post_ratings--><g class="link" data-entity-1="users" data-entity-2="post_ratings" data-source-line="146" data-uid="lnk28" id="link_users_post_ratings"><path codeLine="146" d="M900.31,253.92 C900.31,369.19 900.31,513.45 900.31,606.77" fill="none" id="users-post_ratings" style="stroke:#181818;stroke-width:1;"/><line style="stroke:#181818;stroke-width:1;" x1="896.31" x2="904.31" y1="249.92" y2="249.92"/><line style="stroke:#181818;stroke-width:1;" x1="896.31" x2="904.31" y1="252.92" y2="252.92"/><line style="stroke:#181818;stroke-width:1;" x1="900.31" x2="900.31" y1="253.92" y2="245.92"/><line style="stroke:#181818;stroke-width:1;" x1="900.31" x2="906.31" y1="616.77" y2="624.77"/><line style="stroke:#181818;stroke-width:1;" x1="900.31" x2="894.31" y1="616.77" y2="624.77"/><line style="stroke:#181818;stroke-width:1;" x1="900.31" x2="900.31" y1="616.77" y2="624.77"/><ellipse cx="900.31" cy="610.77" fill="none" rx="4" ry="4" style="stroke:#181818;stroke-width:1;"/><text fill="#000000" font-family="sans-serif" font-size="18" lengthAdjust="spacing" textLength="43.9629" x="856.31" y="431.048">rater</text></g><!--SRC=[fLRBRjim4BphAmZaaAIe3obQe0Y275eaAD1Bcg1dWH4t5XkALCcLqpmAv1TwxE_bIqfQeaNHegtKD610MevsTcRvCBTSrbJJYZ2ueOt0SoNnYZy0EVgOxSzs6Da-8MUNByz_6ATpbs16pbXpeJHIGGw-q0SG1JL8Qj266mHPmE7k6Q_mNcGbPq0gm58navbLXO9BmFiQYELGgY2WeK0gvmB8OqR89rhSphLg9FkiXD9ax_pC_Ln4QGQwVUl6teVbo7xlo1iaShmdZR5IB2cy8PoHO1oJQpxd4id9oSNNqrCxmwB84Y1f1Vsq1TL5IRMTz_tRSbvDZRcpjFEIcZASOcDQ2HXcwMCtN1lC-u-7CK47eK7COCDiENbX9vae1XNbOYnVJxVGG15OJj5FGLw1GLhL-61rzbAPebHAj5dWLPg5UiNa6PX2yngvaZux_497oouAcpa0TG7QeCffNMkrW2wfvGLKEYduN3Prpe0ortbHBSH-WXObwDpJ3WYVEy9zjSioy_PxhohM9iF6Z1VhfMRsVrrgCf3OSOpfjUsN1ppI1GWmHibnwfluM_2mHRSOjj6qeN68LltAjMfDiLplOoKQzzbSmy-6Qs2nkJxE6l0IRbDmYaOvKdFxAeyZZJR8ioe-u3pg_5hjOUKTp-rTwoh9JNDTSMFu_xY_uk5eJt9mQA5BZM6BZzHgJoO6wtnaKu7cnS7xjqU7mL8jLEKIcY6JmBb-EMnVBjFwGLFaSZuYNaAqThwVOkFHhXeB4DgvcNEQQgqCZjaxgMC7Uz9WoIQj3Y4B3dVMbwP5-OhfOfxtIeH-lZjSEsPYIUocNge9PQ-wOQetetqi-2qOCjqm9tQAsrJ3EkPvcpkcds3lGTlEWirzachehUryJ4n5XMW5waNOH6M4oSuNp4iGjFW1vA3Gwkxb-Q-nDzmRfN3Nksjx-LkDfwVPJ3sI-ABJDOxRZUpDTXZpaE5jeOM0j9SziUpMLAOnM7URorAf_BaUBldkNHR5Xf3kcFChmJraKSG3reuHnwj_J9Kp1ciNzXPclZ-NpBg7L98417IMGhHRvV04w6X5ePKluPdJ8Voxf9TfZEKMHIDGtcz8n-tcj2NB6Y1Poc3zaqaA9o2W_m40]--></g></svg>